<?xml version="1.0" standalone="no"?>
<!DOCTYPE svg PUBLIC "-//W3C//DTD SVG 20010904//EN"
 "http://www.w3.org/TR/2001/REC-SVG-20010904/DTD/svg10.dtd">
<svg version="1.0" xmlns="http://www.w3.org/2000/svg"
 width="1600.000000pt" height="900.000000pt" viewBox="0 0 1600.000000 900.000000"
 preserveAspectRatio="xMidYMid meet">

<g transform="translate(0.000000,900.000000) scale(0.100000,-0.100000)"
fill="#000000" stroke="none">
<path d="M0 4529 l0 -4471 23 14 c12 8 3612 2016 8000 4463 4387 2446 7977
4452 7977 4457 0 4 -3600 8 -8000 8 l-8000 0 0 -4471z m5666 2910 c132 -13
277 -41 384 -75 l80 -25 0 -314 c0 -173 -3 -315 -8 -315 -4 0 -17 7 -29 15
-45 31 -182 94 -258 118 -157 49 -239 61 -415 62 -146 0 -174 -3 -240 -24 -92
-28 -123 -44 -177 -87 -56 -46 -86 -110 -85 -184 1 -71 26 -125 85 -182 87
-84 175 -134 440 -249 304 -132 474 -236 605 -373 96 -100 161 -221 187 -351
21 -100 22 -292 1 -396 -19 -98 -76 -246 -121 -314 -76 -114 -217 -221 -376
-284 -393 -157 -1068 -141 -1462 33 l-57 25 0 320 c0 202 -4 322 -10 326 -15
9 -12 25 4 25 7 0 16 -8 18 -18 7 -24 130 -105 240 -157 198 -92 344 -125 557
-125 207 0 350 40 430 121 104 103 94 262 -22 381 -73 75 -180 138 -394 232
-397 175 -561 284 -690 456 -119 158 -170 370 -143 594 41 342 280 602 651
709 80 24 239 53 324 60 95 8 380 6 481 -4z m-1706 -339 l0 -280 -425 0 -425
0 0 -1215 0 -1215 -315 -1 c-173 -1 -327 -1 -342 -2 l-28 -1 -3 1217 -2 1217
-425 0 -425 0 0 280 0 280 1195 0 1195 0 0 -280z"/>
<path d="M12528 4081 c-405 -88 -659 -365 -693 -756 -14 -171 34 -403 110
-530 136 -226 306 -349 740 -535 363 -157 468 -224 516 -332 32 -73 32 -175 1
-240 -26 -53 -91 -117 -151 -147 -97 -50 -285 -66 -425 -36 -152 32 -313 148
-416 298 -25 37 -48 67 -51 67 -4 0 -73 -39 -155 -86 -82 -47 -185 -107 -229
-132 -44 -25 -92 -54 -107 -64 l-27 -19 31 -52 c53 -90 89 -138 162 -215 173
-183 391 -299 668 -354 146 -29 433 -32 573 -6 256 48 475 164 604 320 60 73
134 216 156 303 58 229 33 496 -66 686 -121 231 -339 390 -819 594 -176 75
-304 139 -362 181 -89 66 -138 177 -123 284 9 64 60 148 111 182 92 62 238 73
359 27 68 -25 166 -113 210 -188 17 -28 33 -51 37 -51 5 0 118 70 252 157
l245 156 -22 39 c-39 70 -150 201 -220 260 -90 75 -225 143 -345 175 -84 22
-122 26 -287 29 -158 3 -204 1 -277 -15z"/>
<path d="M10648 2903 c-3 -1123 -4 -1170 -22 -1221 -26 -71 -83 -134 -148
-163 -45 -19 -70 -23 -158 -23 -95 0 -111 3 -163 28 -75 36 -144 106 -208 211
-49 80 -53 84 -73 72 -12 -7 -128 -78 -259 -157 -177 -108 -236 -148 -232
-160 3 -8 27 -50 53 -94 55 -93 161 -209 252 -278 181 -137 445 -209 716 -195
460 25 740 236 851 642 l28 100 3 1203 3 1202 -320 0 -321 0 -2 -1167z"/>
</g>
</svg>
